<svg width="54" height="54" viewBox="0 0 54 54" fill="none" xmlns="http://www.w3.org/2000/svg">
<g clip-path="url(#clip0_1103_77)">
<rect width="8" height="8" fill="black"/>
<rect x="4" y="4" width="8" height="8" fill="black"/>
<rect x="8" y="8" width="8" height="8" fill="black"/>
<rect x="12" y="12" width="8" height="8" fill="black"/>
<rect x="16" y="16" width="8" height="8" fill="black"/>
<rect x="20" y="20" width="8" height="8" fill="black"/>
<rect x="24" y="24" width="8" height="8" fill="black"/>
<rect x="28" y="28" width="8" height="8" fill="black"/>
<rect x="32" y="32" width="8" height="8" fill="black"/>
<rect x="36" y="36" width="8" height="8" fill="black"/>
<rect x="40" y="40" width="8" height="8" fill="black"/>
<rect x="44" y="44" width="8" height="8" fill="black"/>
<rect x="48" y="48" width="8" height="8" fill="black"/>
<rect x="52" y="52" width="8" height="8" fill="black"/>
<rect x="56" y="56" width="8" height="8" fill="black"/>
<rect width="8" height="8" transform="matrix(-1 0 0 1 64 0)" fill="black"/>
<rect width="8" height="8" transform="matrix(-1 0 0 1 60 4)" fill="black"/>
<rect width="8" height="8" transform="matrix(-1 0 0 1 56 8)" fill="black"/>
<rect width="8" height="8" transform="matrix(-1 0 0 1 52 12)" fill="black"/>
<rect width="8" height="8" transform="matrix(-1 0 0 1 48 16)" fill="black"/>
<rect width="8" height="8" transform="matrix(-1 0 0 1 44 20)" fill="black"/>
<rect width="8" height="8" transform="matrix(-1 0 0 1 40 24)" fill="black"/>
<rect width="8" height="8" transform="matrix(-1 0 0 1 36 28)" fill="black"/>
<rect width="8" height="8" transform="matrix(-1 0 0 1 32 32)" fill="black"/>
<rect width="8" height="8" transform="matrix(-1 0 0 1 28 36)" fill="black"/>
<rect width="8" height="8" transform="matrix(-1 0 0 1 24 40)" fill="black"/>
<rect width="8" height="8" transform="matrix(-1 0 0 1 20 44)" fill="black"/>
<rect width="8" height="8" transform="matrix(-1 0 0 1 16 48)" fill="black"/>
<rect width="8" height="8" transform="matrix(-1 0 0 1 12 52)" fill="black"/>
<rect width="8" height="8" transform="matrix(-1 0 0 1 8 56)" fill="black"/>
</g>
<defs>
<clipPath id="clip0_1103_77">
<rect width="64" height="64" fill="white"/>
</clipPath>
</defs>
</svg>
